<?xml version="1.0" standalone="no"?>
<!DOCTYPE svg PUBLIC "-//W3C//DTD SVG 20010904//EN"
 "http://www.w3.org/TR/2001/REC-SVG-20010904/DTD/svg10.dtd">
<svg version="1.0" xmlns="http://www.w3.org/2000/svg"
 width="16.000000pt" height="16.000000pt" viewBox="0 0 16.000000 16.000000"
 preserveAspectRatio="xMidYMid meet">
<metadata>
Created by potrace 1.11, written by Peter Selinger 2001-2013
</metadata>
<g transform="translate(0.000000,16.000000) scale(0.006926,-0.006926)"
fill="#000000" stroke="none">
<path d="M1123 2266 c-17 -8 -39 -26 -48 -40 -16 -24 -19 -25 -38 -11 -12 8
-28 15 -36 15 -8 0 -34 9 -58 21 -40 20 -45 20 -68 5 -13 -9 -30 -34 -36 -57
-13 -42 -14 -43 -81 -23 -24 7 -58 -31 -58 -63 0 -16 5 -47 10 -71 8 -35 7
-46 -5 -58 -18 -19 -19 -63 -2 -107 6 -18 12 -60 12 -94 -1 -34 3 -59 7 -57 4
3 8 -1 8 -8 0 -8 15 -40 34 -71 19 -30 31 -59 27 -63 -3 -4 -1 -4 5 -1 6 3 21
-11 33 -33 19 -34 20 -40 6 -40 -72 0 -185 -125 -185 -205 0 -14 -4 -25 -8
-25 -20 0 -92 -74 -111 -113 -28 -57 -40 -130 -31 -174 7 -30 4 -42 -18 -76
-23 -35 -27 -52 -30 -138 -4 -87 -2 -103 17 -135 17 -28 19 -39 10 -50 -7 -8
-12 -41 -12 -73 0 -76 38 -163 82 -186 19 -9 31 -23 31 -36 0 -31 36 -94 69
-122 16 -13 27 -28 23 -32 -4 -4 -2 -6 3 -4 6 1 24 -3 40 -10 17 -7 43 -15 59
-18 16 -3 38 -15 49 -26 35 -35 119 -66 201 -73 53 -5 80 -3 85 4 12 20 68 24
86 6 13 -13 28 -15 83 -9 77 8 133 28 180 64 31 23 120 61 150 63 6 1 10 3 8
6 -3 2 9 16 25 29 33 28 69 92 69 123 0 11 4 20 9 20 16 0 64 55 82 95 20 43
25 144 9 174 -7 13 -4 29 10 57 36 70 22 242 -24 294 -10 10 -12 27 -7 55 15
88 -33 206 -107 260 -26 19 -41 38 -41 53 -3 81 -95 183 -184 201 l-28 6 46
63 c102 140 139 240 100 272 -12 10 -12 15 -1 33 27 44 27 74 1 113 -23 33
-25 44 -19 99 9 88 -4 109 -62 102 -44 -4 -45 -4 -60 31 -8 20 -20 40 -27 44
-27 17 -73 7 -111 -23 l-38 -32 -21 26 c-27 33 -71 42 -114 23z"/>
</g>
</svg>
